<svg width="48" height="48" viewBox="0 0 48 48" fill="none" xmlns="http://www.w3.org/2000/svg">
<path fill-rule="evenodd" clip-rule="evenodd" d="M4 17.9685C4.22916 18.0203 4.41383 18.1783 4.60814 18.3019C4.94994 18.5191 5.29718 18.7283 5.6396 18.9446C6.40659 19.429 7.20578 19.8622 7.97167 20.3477C8.22075 20.5057 8.55461 20.618 8.76666 20.8211C8.62882 22.0422 8.45986 23.2569 8.50918 24.4916C8.55694 25.6892 8.81504 26.8843 9.14611 28.033C9.36314 28.7857 9.67646 29.5262 9.99555 30.2407C10.0968 30.4677 10.3221 30.7234 10.3839 30.9546C10.2812 31.0557 10.003 31.0114 9.86813 31.0228C9.44263 31.0593 8.97824 31.3317 8.55212 31.2826C8.20892 30.048 7.72664 28.8303 7.29383 27.6244C6.14507 24.4248 4.98277 21.2233 4 17.9685Z" fill="#B1863C"/>
<path fill-rule="evenodd" clip-rule="evenodd" d="M8.77077 32.5347C8.92058 31.996 9.98036 31.9825 10.4619 31.8675C12.2032 31.4514 14.035 31.2857 15.8116 31.0747C19.357 30.6535 22.9556 30.6036 26.5191 30.7461C28.7639 30.8359 30.9936 30.938 33.225 31.2142C34.7085 31.3976 36.1768 31.5896 37.6413 31.8972C38.171 32.0084 38.9442 32.0402 39.3974 32.3446C39.4827 32.541 39.4061 32.8526 39.3979 33.0631C39.3767 33.5999 39.3612 34.138 39.3812 34.6746C39.2614 34.692 39.0923 34.6174 38.9721 34.5929C38.6606 34.5295 38.3491 34.4664 38.038 34.4016C37.035 34.193 36.0126 33.9725 34.9956 33.8457C31.4139 33.3996 27.7942 33.1351 24.184 33.1017C20.6333 33.069 17.0638 33.3177 13.5499 33.8234C12.4759 33.978 11.3983 34.1312 10.3391 34.3696C9.98332 34.4498 9.62549 34.5421 9.27607 34.6463C9.12672 34.6908 8.90705 34.8148 8.7521 34.8019C8.82662 34.0541 8.65082 33.2796 8.77077 32.5347Z" fill="#A0752F"/>
<path fill-rule="evenodd" clip-rule="evenodd" d="M9.62842 25.3673C9.87485 25.3524 10.2418 25.7662 10.4586 25.8935C10.952 26.1837 11.5516 26.3444 12.1282 26.286C13.583 26.1388 13.6743 24.062 13.5456 22.9921C13.5136 22.7257 13.4462 22.4054 13.3356 22.1604C13.2415 21.9518 13.0255 21.8487 12.8844 21.6781C12.6288 21.3689 12.5394 20.7842 12.8596 20.4871C13.1765 20.1928 13.7459 20.4589 13.8895 20.8255C14.031 21.1868 13.9377 21.5691 13.797 21.9034C14.6944 23.0259 15.6324 24.54 17.3179 24.2749C17.5442 24.2394 17.7589 24.1577 17.9604 24.0501C18.2804 23.8793 18.5782 23.6655 18.8427 23.4177C19.1392 23.14 19.4458 22.7902 19.6327 22.428C19.7038 22.3914 19.8551 22.8884 19.892 22.9871C20.1377 23.645 20.3614 24.3073 20.6235 24.9596C21.0605 26.0475 21.4479 27.1515 21.8719 28.2439C22.0056 28.5886 22.1354 28.9348 22.2732 29.2783C22.3201 29.3948 22.4199 29.5478 22.4283 29.6709C21.1302 29.7112 19.8419 29.8277 18.548 29.9244C18.1917 29.9511 17.8362 29.9784 17.48 30.0066C17.3692 30.0154 17.1816 30.1043 17.0826 30.0629C17.038 29.7819 16.8695 29.529 16.7762 29.2619C16.656 28.9186 16.5885 28.5605 16.4491 28.2231C16.4222 28.158 16.2349 27.6831 16.1439 27.6896C16.0986 27.6928 16.1078 27.7725 16.0898 27.8139C16.0339 28.3777 15.9157 28.9339 15.8491 29.4954C15.8254 29.6937 15.8707 30.0224 15.7266 30.1789C15.4676 30.2987 15.0763 30.2815 14.7905 30.3025C14.2151 30.3446 13.6354 30.4042 13.0652 30.498C12.6108 30.5729 12.0373 30.82 11.5852 30.792C11.4595 30.7728 11.3757 30.6388 11.3069 30.5406C11.1047 30.2522 10.9382 29.937 10.773 29.6267C10.0914 28.3455 9.66373 26.8205 9.62842 25.3673Z" fill="#A97D35"/>
<path fill-rule="evenodd" clip-rule="evenodd" d="M9.75537 35.3918C10.7601 35.1387 11.7769 34.9503 12.7934 34.7475C13.3099 34.6444 13.8495 34.4596 14.378 34.4453C14.8053 34.4337 15.2559 34.6112 15.6767 34.6835C16.6139 34.8443 17.5711 34.9893 18.5178 35.0793C21.7427 35.3857 24.9546 35.4992 28.188 35.2826C29.4048 35.2011 30.6377 35.0703 31.8394 34.8619C32.4765 34.7515 33.1843 34.5064 33.8307 34.5157C34.079 34.5193 34.3031 34.6174 34.5437 34.6598C34.9951 34.739 35.4492 34.7929 35.9007 34.8747C36.5575 34.9936 37.2117 35.1164 37.864 35.2564C37.9378 35.2722 38.4375 35.3662 38.4064 35.422C38.364 35.4978 38.1856 35.5037 38.1139 35.531C37.799 35.6507 37.4861 35.7786 37.1695 35.8979C35.8531 36.3942 34.4398 36.7414 33.0516 36.9673C27.4533 37.8781 21.6141 37.9932 16.0087 37.0566C14.4004 36.7879 12.7899 36.487 11.234 35.9981C10.8439 35.8756 10.4464 35.7523 10.0777 35.5746C9.98095 35.5279 9.78073 35.4896 9.75537 35.3918Z" fill="#956B2C"/>
<path fill-rule="evenodd" clip-rule="evenodd" d="M19.5049 19.4399C19.5875 19.1307 19.7712 18.8252 19.9095 18.5362C20.2398 17.8462 20.6008 17.1694 20.9485 16.4882C21.8645 14.6939 22.7415 12.8656 23.5343 11.0162C23.5422 11.0024 23.5925 11.5235 23.5945 11.6664C23.601 12.1304 23.5922 12.5961 23.5859 13.0603C23.5674 14.4554 23.5879 15.8528 23.5968 17.248C23.6147 20.0587 23.5802 22.8685 23.5752 25.679C23.5736 26.5752 23.5477 27.4691 23.5483 28.3653C23.5486 28.7111 23.6626 29.2099 23.5744 29.536C23.4946 29.5549 23.4146 29.5529 23.3339 29.5639C23.1548 29.224 23.0788 28.7928 22.9521 28.4286C22.6551 27.5753 22.3519 26.7231 22.0482 25.872C21.2747 23.7035 20.3509 21.5757 19.5049 19.4399Z" fill="#B88F42"/>
<path fill-rule="evenodd" clip-rule="evenodd" d="M24.533 11C24.9658 11.6835 25.2594 12.4817 25.6034 13.2142C26.1868 14.4566 26.7809 15.6944 27.3676 16.9353C27.6593 17.5524 27.9673 18.1631 28.2715 18.7741C28.3825 18.9974 28.6134 19.2537 28.6685 19.4907C28.4628 20.1878 28.0467 20.8645 27.7756 21.5436C27.3735 22.5515 27.0088 23.5727 26.593 24.576C26.0531 25.8783 25.4658 27.1829 25.0147 28.5191C24.8986 28.7979 24.8435 29.0945 24.7457 29.3783C24.7072 29.4901 24.7097 29.6361 24.5694 29.6464C24.494 29.5423 24.5282 29.3694 24.5322 29.2454C24.5422 28.9415 24.5453 28.6377 24.5442 28.3336C24.5398 27.1453 24.5322 25.9571 24.5294 24.7687C24.5241 22.5976 24.5959 20.4264 24.5805 18.257C24.5632 15.8387 24.502 13.4178 24.533 11Z" fill="#B88E42"/>
<path fill-rule="evenodd" clip-rule="evenodd" d="M25.6367 29.6762C26.1945 28.3362 26.6929 26.9689 27.2223 25.6152C27.6494 24.5232 28.1269 23.4154 28.4322 22.2823C28.8286 22.6741 29.0629 23.1926 29.4824 23.5681C30.544 24.5188 31.9613 24.434 32.9823 23.468C33.4467 23.0287 33.7759 22.3542 34.3302 22.0191C34.3691 21.8006 34.1974 21.4634 34.2047 21.2147C34.2189 20.7405 34.6168 20.3848 35.0753 20.4178C35.1906 20.4262 35.3027 20.4226 35.3892 20.5031C35.851 21.0868 35.3237 21.6902 34.8317 22.0007C34.656 22.2547 34.6685 22.6576 34.6051 22.9552C34.3321 24.2385 34.6669 26.0354 36.1666 26.2978C36.7116 26.393 37.4525 26.2665 37.9083 25.9396C38.1353 25.7768 38.2822 25.5103 38.5076 25.356C38.5798 25.8416 38.4645 26.4439 38.3674 26.923C38.1768 27.8623 37.8066 28.7694 37.3831 29.6256C37.1956 30.0043 36.9962 30.4267 36.7354 30.7611C36.3336 30.7988 35.862 30.5917 35.4625 30.5362C34.4377 30.3937 33.3817 30.202 32.3449 30.1887C32.2767 30.011 32.2956 29.7833 32.2718 29.5943C32.2177 29.1671 32.1656 28.7409 32.059 28.323C32.0377 28.2393 31.9772 27.7392 31.8737 27.767C31.7342 28.1607 31.5733 28.5449 31.4776 28.953C31.3997 29.2865 31.356 29.7427 31.1763 30.037C29.3596 29.8105 27.468 29.6615 25.6367 29.6762Z" fill="#AC8036"/>
<path fill-rule="evenodd" clip-rule="evenodd" d="M37.8417 30.8177C38.2964 29.8773 38.7893 28.9448 39.0771 27.9338C39.4797 26.519 39.7045 24.9578 39.6496 23.4855C39.6195 22.6751 39.4665 21.8983 39.3533 21.1032C39.9967 20.5463 40.8393 20.1393 41.5564 19.6797C42.4643 19.0978 43.3372 18.4163 44.2767 17.8899C44.3491 18.0527 44.0585 18.5585 43.9973 18.7257C43.7117 19.5087 43.4548 20.3162 43.2051 21.1115C42.4162 23.625 41.4739 26.092 40.5596 28.5619C40.3007 29.2611 40.0695 29.9706 39.8085 30.6692C39.7238 30.8959 39.6826 31.1385 39.575 31.3565C39.3156 31.3263 39.0337 31.1971 38.7787 31.1292C38.4603 31.0444 38.1331 31.0028 37.8149 30.9176C37.8238 30.8842 37.8327 30.8509 37.8417 30.8177Z" fill="#B4883F"/>
</svg>
