<svg width="500" height="200" viewBox="0 0 500 200" fill="none" xmlns="http://www.w3.org/2000/svg">
<g clip-path="url(#clip0_601_9)">
<path fill-rule="evenodd" clip-rule="evenodd" d="M184.719 103.855C185.057 102.103 185.137 100.327 185.569 98.5839C186.307 95.6048 187.614 92.675 189.145 90.0227C194.631 80.5188 204.927 75.4707 215.655 74.8856C218.752 74.7168 221.814 75.1416 224.862 75.64C227.368 76.0505 229.837 76.6819 232.267 77.4144C234.096 77.9656 236.178 78.4973 237.722 79.677C238.23 80.5336 237.943 82.0365 237.942 83.0042C237.94 85.6108 237.938 88.2186 238 90.8247C238.023 91.7638 238.523 93.2531 238.197 94.1287C237.927 94.2279 237.69 94.1987 237.409 94.2207C236.883 93.7241 236.792 92.6875 236.592 92.0151C236.235 90.811 235.703 89.6698 235.071 88.5857C233.115 85.2324 230.921 81.6944 227.6 79.5161C225.366 78.0506 222.13 77.251 219.513 76.8898C217.296 76.5839 214.967 76.5875 212.755 76.9154C210.833 77.2005 208.852 77.8926 207.106 78.7278C193.869 85.0578 191.569 101.679 193.805 114.714C194.576 119.206 196.022 123.778 198.777 127.485C202.201 132.094 206.782 136.401 212.573 137.718C214.591 138.177 216.686 138.137 218.743 138.135C221.786 138.132 224.532 137.785 227.196 136.22C230.417 134.329 232.615 131.309 234.486 128.159C235.911 125.759 237.535 122.8 237.672 119.963C238.146 119.998 238.789 120.005 239.086 120.421C239.793 123.54 239.215 127.337 239.151 130.524C239.123 131.88 239.397 133.76 238.97 135.043C235.513 137.11 231.232 137.625 227.379 138.495C225.221 138.982 223.183 139.634 220.963 139.845C208.535 141.028 195.361 136.771 188.893 125.536C187.208 122.61 186.056 119.243 185.324 115.956C184.446 112.022 184.305 107.858 184.719 103.855Z" fill="#A5782E"/>
<path fill-rule="evenodd" clip-rule="evenodd" d="M246.418 129.4C246.624 128.246 246.819 127.178 247.302 126.094C250.315 119.325 257.888 116.885 264.379 114.704C266.344 114.044 268.385 113.637 270.412 113.232C271.442 113.025 272.538 112.856 273.086 111.828C273.8 110.49 273.312 108.217 273.246 106.763C273.024 101.887 271.813 96.7602 266.429 95.3101C265.505 95.0612 264.468 95.0743 263.52 95.1557C259.572 95.4931 256.11 96.9568 255.149 101.175C254.683 103.217 255.426 105.288 254.138 107.167C253 108.829 249.7 109.02 248.536 107.305C247.828 106.264 248.03 104.611 248.436 103.497C249.38 100.902 251.481 98.9504 253.56 97.2425C259.532 92.3382 270.842 91.6099 276.527 97.318C279.345 100.146 279.56 104.073 279.666 107.819C279.834 113.685 279.795 119.549 279.75 125.417C279.726 128.571 278.943 134.668 282.556 136.32C283.578 136.788 285.012 136.607 285.914 135.963C286.897 135.262 287.465 134.019 288.865 134.256C289.14 135.192 287.745 136.619 287.154 137.226C284.74 139.706 281.139 140.517 277.941 139.13C275.802 138.202 274.501 136.548 273.995 134.31C273.8 133.445 273.692 132.571 273.622 131.688C273.598 131.391 273.625 130.819 273.341 130.691C270.207 135.112 264.8 139.171 259.302 139.848C252.847 140.643 245.993 136.459 246.418 129.4ZM253.87 126.126C253.64 127.795 253.553 129.728 254.088 131.347C254.745 133.331 256.371 134.443 258.249 135.159C262.617 136.826 267.694 134.942 270.976 131.846C271.734 131.132 272.985 129.929 273.283 128.909C273.659 127.627 273.215 125.631 273.201 124.288C273.167 120.963 273.573 117.351 273.131 114.065C272.825 113.735 271.996 113.792 271.576 113.902C270.149 114.277 268.725 114.954 267.333 115.454C261.829 117.43 255.377 119.877 253.87 126.126Z" fill="#A7782E"/>
<path fill-rule="evenodd" clip-rule="evenodd" d="M253.142 56.805C254.908 56.3511 257.493 56.4776 259.305 56.7063C261.399 60.4024 264.664 63.7343 267.364 67.0051C270.121 70.3459 272.436 74.1762 275.396 77.33C275.562 77.071 275.433 76.4841 275.456 76.1686C275.534 75.0881 275.469 73.9903 275.465 72.9074C275.454 69.9343 275.465 66.9647 275.492 63.9916C275.505 62.5504 275.789 60.7208 275.172 59.3706C274.808 58.5722 273.989 57.9164 273.235 57.4976C272.762 57.235 272.428 57.2748 272.135 56.7776C273.715 56.0796 276.152 56.4331 277.86 56.4479C278.546 56.4545 279.41 56.4248 280.033 56.7313C279.664 57.5968 278.048 58.1861 277.394 58.9506C276.484 60.6881 276.922 63.2829 276.944 65.1802C276.994 69.481 276.705 73.8133 276.803 78.0951C276.836 79.5107 276.867 80.9512 276.811 82.365C276.787 82.9935 276.524 83.6428 275.761 83.3392C272.448 78.3565 268.419 73.7432 264.772 68.9975C262.813 66.4491 261.048 63.233 258.621 61.1218C258.255 61.6059 258.306 62.2089 258.275 62.8047C258.204 64.1793 258.268 65.5568 258.288 66.932C258.334 70.065 258.306 73.1967 258.313 76.3296C258.315 77.769 258.127 79.5867 258.869 80.8882C259.472 81.9438 260.621 82.4606 261.702 82.8812C262.049 83.5572 260.343 83.4099 259.959 83.4129C258.193 83.426 255.074 84.0306 253.582 82.9917C254.496 82.0757 255.858 81.9842 256.471 80.6803C257.274 78.9713 256.808 76.3884 256.776 74.5553C256.716 71.1336 256.767 67.7096 256.781 64.288C256.787 62.7898 257.108 60.785 256.644 59.3498C256.349 58.4374 254.925 57.8885 254.129 57.5303C253.659 57.3194 253.146 57.4067 253.142 56.805Z" fill="#B28845"/>
<path fill-rule="evenodd" clip-rule="evenodd" d="M275.51 38.7571C279.358 37.7876 283.254 37.0659 287.148 36.2889C289.126 35.8938 291.193 35.1858 293.218 35.1311C294.855 35.0865 296.581 35.7667 298.193 36.0435C301.783 36.6595 305.45 37.215 309.076 37.5601C321.43 38.7339 333.733 39.1687 346.12 38.3389C350.781 38.0264 355.504 37.5256 360.107 36.7273C362.548 36.3043 365.259 35.3651 367.735 35.4008C368.687 35.4144 369.545 35.7905 370.467 35.9526C372.196 36.2562 373.935 36.4629 375.665 36.776C378.181 37.2316 380.687 37.7021 383.186 38.2385C383.468 38.2991 385.383 38.659 385.263 38.8729C385.101 39.1634 384.418 39.186 384.143 39.2905C382.937 39.7491 381.738 40.2392 380.525 40.696C375.482 42.5975 370.069 43.9275 364.751 44.793C343.305 48.2824 320.937 48.7232 299.464 45.1352C293.303 44.1057 287.134 42.9527 281.174 41.0797C279.68 40.6104 278.157 40.1382 276.745 39.4574C276.374 39.2786 275.607 39.1319 275.51 38.7571Z" fill="#956B2C"/>
<path fill-rule="evenodd" clip-rule="evenodd" d="M282.696 77.971C284.292 73.8644 289.325 74.1793 292.684 72.595C293.922 70.9311 293.471 67.5255 291.898 66.2162C290.46 65.0199 287.844 65.1131 286.837 66.8008C286.411 67.5136 286.591 68.3601 286.53 69.1484C285.579 69.5755 285.166 70.5545 284.341 70.9739C283.895 70.6935 283.12 69.948 283.042 69.4133C284.03 65.643 288.14 63.9316 291.761 64.4734C292.89 64.6427 294.282 64.8915 295.067 65.7909C298.058 69.2167 296.283 74.9117 296.597 79.0242C296.677 80.0703 297.332 81.553 298.599 81.4805C299.337 81.4383 299.935 80.8181 300.504 80.4255C300.642 80.8259 300.18 81.3391 299.931 81.6118C299.16 82.4535 297.635 83.2086 296.488 83.3404C294.814 83.5329 293.904 81.3564 293.469 80.157C292.863 80.4659 292.653 80.9958 292.199 81.4674C291.507 82.1844 290.581 82.7488 289.653 83.107C286.148 84.462 281.622 82.1827 282.696 77.971ZM286.052 78.3114C285.896 81.793 290.863 82.5272 292.71 80.0186C294.152 78.0618 293.047 75.7225 293.028 73.5781C290.254 74.3016 286.662 74.9955 286.052 78.3114Z" fill="#B58942"/>
<path fill-rule="evenodd" clip-rule="evenodd" d="M303.133 107.604C302.931 107.84 302.93 108.213 302.763 108.499C302.105 110.123 302.317 112.111 302.252 113.834C302.099 117.829 302.33 121.806 302.338 125.798C302.339 127.117 302.34 128.411 302.63 129.691C302.768 130.302 302.459 130.92 302.922 131.448C303.041 133.965 304.138 137.322 306.924 137.947C308.326 138.263 310.037 137.735 311.333 138.132C311.3 138.543 311.292 138.954 311.277 139.366C307.558 139.187 303.81 139.364 300.086 139.35C297.035 139.338 293.839 139.086 290.805 139.393C290.541 139.084 290.594 138.344 290.484 137.949C291.852 137.668 293.492 138.157 294.638 137.096C295.196 136.579 295.378 135.81 295.664 135.135C295.954 134.451 296.377 133.8 296.591 133.088C297.061 131.527 296.883 129.765 296.849 128.16C296.718 121.854 296.829 115.563 296.866 109.259C296.881 106.644 297.439 102.785 296.128 100.398C295.525 99.2985 294.124 98.2786 293.047 97.6602C291.664 97.5812 291.132 98.0053 290 96.9438C291.977 96.165 294.088 95.8757 296.12 95.2615C297.972 94.7019 299.702 93.9029 301.5 93.2174C302.221 94.3597 302.075 95.6696 302.151 96.9634C302.294 99.3799 302.709 101.787 302.733 104.211C302.842 104.541 303.063 104.1 303.125 103.94C303.428 103.169 303.773 102.491 304.246 101.802C305.412 100.105 306.804 98.6629 308.437 97.4107C311.752 94.87 315.118 93.0012 319.47 93.7212C321.357 94.0336 323.423 95.0156 323.684 97.0935C323.905 98.8471 321.148 101.812 319.3 101.441C317.294 101.04 315.905 98.9968 313.785 98.5756C309.652 97.754 306.443 100.569 304.561 103.918C303.928 105.046 303.261 106.296 303.133 107.604Z" fill="#A77930"/>
<path fill-rule="evenodd" clip-rule="evenodd" d="M300.584 83.0119C301.011 82.7107 301.477 82.6389 301.947 82.4553C303.871 81.1651 303.471 79.1204 303.436 77.0995C303.403 75.1552 303.572 73.2205 303.582 71.278C303.588 70.2319 303.837 68.6702 303.448 67.6835C303.141 66.9035 301.525 66.2495 301.425 65.58C303.139 64.8173 304.497 64.49 306.372 64.3979C306.782 65.3365 306.879 66.4034 306.895 67.4227C307.03 67.6782 307.803 66.5049 307.973 66.3327C308.799 65.4933 309.8 64.8322 310.943 64.5155C314.164 63.6239 316.736 65.1606 318.389 67.8409C318.662 67.8932 318.813 67.5629 318.898 67.3616C319.161 66.7396 319.801 66.0838 320.282 65.6228C321.469 64.4864 323.772 64.0706 325.328 64.4894C332.029 66.2935 329.69 75.1077 330.293 80.3061C330.388 81.1235 330.931 81.8506 331.653 82.2581C331.927 82.4131 333.12 82.4987 333.023 82.7417C332.315 83.2062 331.575 82.962 330.775 82.9674C329.192 82.9787 327.61 83.0903 326.022 83.082C325.271 83.0779 324.114 83.3119 323.683 82.627C324.785 82.125 325.611 82.185 326.254 80.9952C326.928 79.7501 326.71 77.8361 326.725 76.4704C326.765 72.9995 327.707 66.2537 322.488 66.4384C317.215 66.6249 318.178 72.8504 318.208 76.6219C318.218 77.9312 318.006 79.9604 318.623 81.1485C319.189 82.2379 319.953 82.1541 320.941 82.5462C321.224 83.3766 319.347 83.1248 318.857 83.1289C316.95 83.1456 313.728 83.7331 312.066 82.7096C313.199 82.1815 314.19 82.3882 314.882 81.0789C315.46 79.9853 315.102 77.9846 315.133 76.7663C315.224 73.2579 316.631 66.9065 311.733 66.2709C309.951 66.0398 307.538 67.2226 307 69.0694C306.346 71.3137 306.802 74.1662 306.746 76.4853C306.697 78.5163 306.305 80.735 307.999 82.2284C308.399 82.3846 309.865 82.286 309.676 82.8129C309.252 83.2103 307.768 83.0808 307.207 83.0666C304.999 83.0096 302.785 83.1729 300.584 83.0119Z" fill="#B18641"/>
<path opacity="0.992" fill-rule="evenodd" clip-rule="evenodd" d="M303.133 107.604C302.564 115.457 302.728 123.577 302.922 131.448C302.459 130.919 302.768 130.302 302.63 129.691C302.34 128.411 302.339 127.116 302.337 125.798C302.33 121.806 302.099 117.829 302.252 113.834C302.317 112.111 302.104 110.123 302.762 108.499C302.93 108.213 302.93 107.84 303.133 107.604Z" fill="#C19B6B"/>
<path fill-rule="evenodd" clip-rule="evenodd" d="M330.773 112.056C329.981 111.941 330.644 111.248 330.202 110.877C329.499 111.246 329.767 112.118 329.992 112.716C329.826 123.379 337.039 135.666 348.871 135.395C350.16 135.366 351.54 135.384 352.798 135.084C355.893 134.347 358.483 132.87 360.635 130.539C361.61 129.483 362.395 127.897 363.447 126.996C363.936 127.231 364.328 127.506 364.688 127.913C363.782 130.156 361.684 132.226 359.953 133.856C357.586 136.083 354.831 138.147 351.709 139.192C345.263 141.349 337.437 139.55 332.244 135.343C330.775 134.153 329.684 132.573 328.659 131.007C325.122 125.602 323.814 118.82 324.79 112.412C325.824 105.631 330.077 98.8423 336.155 95.4444C344.449 90.8074 355.981 94.005 360.5 102.341C362.07 105.237 362.081 108.573 362.265 111.759C361.632 112.118 360.398 111.873 359.686 111.878C357.599 111.895 355.517 112.003 353.43 112.004C345.899 112.01 338.293 111.645 330.773 112.056ZM330.129 108.304C330.042 109.156 330.583 109.902 331.238 110.418C336.733 110.293 342.256 110.304 347.768 110.281C350.285 110.271 353.157 110.666 355.629 110.217C356.53 109.565 355.811 107.496 355.601 106.621C355.044 104.303 354.354 101.7 352.878 99.7737C352.46 99.229 351.841 99.0246 351.368 98.5643C351.046 98.2506 350.907 97.8081 350.59 97.4873C349.99 96.9598 349.219 97.0109 348.533 96.658C347.972 96.3693 347.473 95.9 346.861 95.72C341.893 94.2593 336.278 96.2368 333.146 100.223C331.23 102.661 330.843 105.408 330.129 108.304Z" fill="#A4772F"/>
<path fill-rule="evenodd" clip-rule="evenodd" d="M330.773 112.056C330.333 112.311 330.133 112.133 329.992 112.716C329.767 112.118 329.499 111.246 330.202 110.877C330.644 111.248 329.981 111.941 330.773 112.056Z" fill="#BBAC7C"/>
<path fill-rule="evenodd" clip-rule="evenodd" d="M334.334 72.6704C335.068 68.2864 338.257 63.8662 343.296 64.269C346.362 64.5143 348.583 65.8949 349.949 68.6636C350.488 69.7561 350.997 70.8836 350.485 72.1001C349.675 72.4869 347.6 72.1239 346.694 72.0348C344.764 71.8459 342.803 71.9386 340.868 71.9237C339.804 71.9154 338.662 71.72 337.656 72.1126C336.903 77.1156 340.995 81.7597 346.195 80.9399C348.088 80.6417 349.407 79.4471 350.945 78.4319C350.872 79.2184 350.106 79.9301 349.615 80.4932C347.75 82.6347 344.412 84.0996 341.583 83.4034C336.493 82.15 333.968 77.6353 334.334 72.6704ZM337.854 69.6664C337.766 70.0905 337.713 70.5259 337.672 70.9566C340.68 70.9815 343.762 71.0422 346.777 70.9293C346.653 69.8862 346.98 68.5805 346.427 67.6223C345.075 65.2777 341.91 64.8826 339.852 66.4741C338.774 67.3081 338.28 68.4189 337.854 69.6664Z" fill="#B78A45"/>
<path fill-rule="evenodd" clip-rule="evenodd" d="M353.608 77.8522C355.169 77.633 355.45 79.5493 356.163 80.5681C357.529 82.5189 361.674 83.3066 363.278 81.2649C364.577 79.6105 363.687 77.8023 362.2 76.6267C359.779 74.7109 354.858 74.184 354.254 70.5468C353.327 64.9587 360.806 62.8124 364.795 65.1191C365.333 65.8004 365.598 68.3904 365.472 69.2767C364.565 69.5108 363.902 67.6568 363.426 67.0871C361.827 65.1719 358.44 64.8019 357.169 67.2617C356.165 69.2066 358.384 70.4868 359.707 71.395C362.441 73.2722 368.28 74.9509 366.355 79.5012C366.102 80.1 365.749 80.6827 365.32 81.1722C364.687 81.894 363.886 82.3662 363.029 82.782C361.827 83.366 360.452 83.6773 359.113 83.6743C357.434 83.6707 355.794 82.8895 354.197 82.444C353.908 80.9328 353.654 79.3883 353.608 77.8522Z" fill="#B48942"/>
<path fill-rule="evenodd" clip-rule="evenodd" d="M356.161 56.18C357.508 56.2769 358.157 57.6723 359.173 58.41C359.496 58.6453 360.049 59.1342 360.471 59.0379C361.568 58.2972 362.524 57.2986 363.688 56.6571C363.948 56.5145 364.696 56.0167 364.961 56.2222C364.535 57.7435 363.07 58.5455 362.284 59.8238C362.041 60.2189 362.098 60.7672 361.943 61.2026C361.42 61.8168 360.118 62.2659 359.34 61.9992C358.672 61.1135 358.366 60.0519 357.736 59.1496C357.077 58.2045 356.205 57.5647 355.752 56.48C355.888 56.3802 356.025 56.2798 356.161 56.18Z" fill="#BC9146"/>
<path fill-rule="evenodd" clip-rule="evenodd" d="M364.911 94.8361C365.725 93.8441 368.337 94.4945 369.523 94.4957C374.093 94.5029 378.661 94.5521 383.23 94.4945C383.378 94.7511 383.057 95.565 383.015 95.8721C382.527 95.96 382.014 95.7153 381.516 95.7384C380.404 95.7907 379.13 96.7762 378.533 97.6637C377.64 100.351 379.56 103.895 380.629 106.303C381.851 109.056 382.735 111.936 383.877 114.718C385.077 117.639 386.477 120.492 387.598 123.445C388.33 125.372 389.059 127.307 389.827 129.219C390.032 129.727 390.224 130.871 390.688 131.19C390.867 128.246 392.766 125.001 393.936 122.323C396.041 117.503 397.724 112.483 399.646 107.588C400.965 104.23 403.652 99.0038 399.544 96.4471C398.617 95.8703 397.056 96.1958 395.995 96.0354C395.789 95.5929 395.736 95.1688 395.837 94.687C397.04 94.071 398.726 94.368 400.031 94.4048C402.497 94.4749 405.119 94.4333 407.583 94.3525C408.554 94.3205 409.371 94.1209 410.308 94.5171C410.519 94.6062 411.155 94.7856 411.15 95.0559C409.707 95.8988 407.636 96.3533 406.463 97.5568C403.995 100.089 403.163 104.217 401.805 107.373C398.264 115.602 395.522 124.146 391.951 132.369C391.209 134.077 390.486 135.831 389.859 137.584C389.611 138.275 389.497 139.298 389.061 139.886C387.509 140.27 387.032 138.638 386.543 137.575C385.193 134.642 383.993 131.639 382.766 128.654C379.825 121.496 376.938 114.21 373.917 107.037C372.645 104.017 371.564 99.8735 369.224 97.4873C368.678 96.9295 367.898 96.216 367.142 95.9731C366.38 95.7277 365.583 95.7046 364.87 95.3173C364.884 95.1569 364.898 94.9965 364.911 94.8361Z" fill="#A87A30"/>
<path fill-rule="evenodd" clip-rule="evenodd" d="M368.791 65.1879C370.585 64.2808 371.962 62.9152 372.974 61.1954C373.399 60.4737 373.638 59.2856 374.611 59.3813C375.191 61.0446 374.594 63.0565 374.961 64.7899C376.346 64.9378 378.545 64.2137 379.803 64.8992C379.82 65.0715 379.921 65.5057 379.815 65.6578C379.678 65.8544 378.891 65.7344 378.696 65.7309C377.486 65.7095 376.235 65.7457 375.038 65.9287C374.512 69.5612 374.807 73.3612 374.79 77.0276C374.783 78.5751 374.48 80.3809 376.11 81.2351C377.856 82.15 378.805 80.2704 380.319 80.4368C380.427 81.9765 379.205 82.7719 377.824 83.1687C375.633 83.7996 373.431 83.6445 372.165 81.4906C371.256 79.9443 371.54 77.8896 371.549 76.1686C371.567 72.7738 371.791 69.2416 371.447 65.8634C370.57 65.5764 369.605 65.5741 368.695 65.4606C368.727 65.3697 368.759 65.2788 368.791 65.1879Z" fill="#AD843F"/>
<path fill-rule="evenodd" clip-rule="evenodd" d="M381.972 78.6047C382.582 75.2894 386.673 73.9148 389.508 73.1919C390.475 72.9454 392.062 72.7547 392.846 72.1423C393.085 70.3394 393.276 67.9733 391.923 66.5477C390.555 65.1059 387.731 64.7086 386.563 66.6469C386.162 67.311 386.387 68.1818 386.383 68.9113C385.83 69.361 385.225 69.7442 384.824 70.3507C384.459 70.5782 383.407 69.9176 383.026 69.7685C382.578 65.075 389.152 63.3868 392.629 64.5808C393.43 64.8559 394.291 65.119 394.881 65.7576C396.023 66.9908 396.229 68.72 396.263 70.3174C396.315 72.706 396.206 75.0922 396.232 77.4814C396.247 78.8822 396.057 82.0312 398.382 81.4621C398.942 81.3248 399.488 81.007 400.002 80.7557C400.02 81.5316 398.662 82.523 398.071 82.9287C397.195 82.9982 396.081 83.3647 395.231 83.2061C394.704 82.7761 394.116 82.3008 393.711 81.7514C393.383 81.3064 393.362 80.7896 392.931 80.4439C391.746 81.1858 391.065 82.3638 389.688 82.921C386.189 84.3372 381.791 82.9311 381.972 78.6047ZM385.571 77.7036C385.213 81.4395 389.619 82.5438 392.006 80.2187C394.051 78.2258 392.595 75.6287 392.897 73.262C392.156 73.3672 391.594 73.6737 390.896 73.8899C388.607 74.6004 386.362 75.1136 385.571 77.7036Z" fill="#B68C47"/>
<path fill-rule="evenodd" clip-rule="evenodd" d="M397.515 90.1932C397.606 89.7524 397.63 89.3092 397.756 88.8762C398.385 88.859 399.009 88.7788 399.638 88.7984C400.558 89.1595 401.072 90.1451 402.053 90.4082C403.662 89.4625 403.682 86.8214 403.699 85.2241C403.742 81.2161 403.69 77.2076 403.746 73.1991C403.768 71.6172 404.175 69.0628 403.45 67.614C402.833 66.9992 402.044 66.4396 401.249 66.0838C402.008 65.0781 404.365 64.9337 405.542 64.7525C405.886 64.6997 406.376 64.4472 406.705 64.5458C406.551 69.2036 406.703 73.8846 406.676 78.5459C406.658 81.4805 406.746 84.6883 405.649 87.4648C404.832 89.5314 402.609 91.5274 400.406 91.8517C399.534 91.98 398.501 92.1636 397.783 91.5434C397.507 91.0967 397.481 90.7088 397.515 90.1932Z" fill="#B48A46"/>
<path fill-rule="evenodd" clip-rule="evenodd" d="M403.412 57.5077C403.635 56.6125 404.125 55.9436 404.988 55.5557C406.577 55.3727 407.647 57.4121 407.108 58.792C406.749 59.7122 405.408 60.1517 404.59 59.6623C404.254 59.4609 403.943 59.2096 403.717 58.887C403.411 58.4516 403.385 58.0221 403.412 57.5077Z" fill="#B48735"/>
<path fill-rule="evenodd" clip-rule="evenodd" d="M412.363 96.9675C414.692 96.5262 417.13 96.0574 419.384 95.3102C421.392 94.6442 423.28 93.7098 425.34 93.2103C425.814 93.8239 425.507 95.5692 425.522 96.3503C425.576 99.1845 425.581 102.02 425.574 104.855C425.557 112.122 425.38 119.393 425.413 126.663C425.427 129.524 424.806 133.39 426.529 135.875C427.39 137.118 428.956 137.744 430.391 138.04C431.061 138.177 431.906 138.071 432.491 138.443C432.558 138.812 432.584 139.125 432.586 139.495C427.485 139.271 422.317 139.228 417.197 139.273C416.016 139.283 414.834 139.327 413.653 139.329C413.476 139.329 412.699 139.408 412.579 139.21C412.554 139.169 412.553 138.407 412.553 138.388C414.3 137.618 416.108 138.512 417.369 136.651C419.328 133.761 419.144 130.533 419.21 127.176C419.32 121.565 419.358 115.945 419.407 110.333C419.422 108.543 419.428 106.754 419.429 104.964C419.431 103.886 419.543 102.689 419.11 101.675C418.478 100.19 417.301 98.8821 415.716 98.4134C414.357 98.0118 413.275 98.4407 412.224 97.3127C412.271 97.1974 412.317 97.0828 412.363 96.9675Z" fill="#A47830"/>
<path fill-rule="evenodd" clip-rule="evenodd" d="M418.053 86.5904C419.325 84.3467 420.96 82.3371 422.258 80.0999C423.663 77.6775 425.484 74.1798 428.119 72.8824C429.649 72.1292 432.412 72.3829 432.712 74.4192C433.012 76.4591 432.028 77.6526 430.658 79.004C428.262 81.3659 425.062 82.8384 422.219 84.5742C421.049 85.2882 419.279 87.0472 417.866 87.0098C417.928 86.8702 417.991 86.73 418.053 86.5904Z" fill="#AB8239"/>
<path fill-rule="evenodd" clip-rule="evenodd" d="M436.813 113.66C437.665 109.045 439.423 104.396 442.625 100.85C449.626 93.0956 463.329 89.955 471.673 97.5283C473.439 99.1316 474.744 101.714 474.682 104.143C474.66 104.964 474.582 106.087 473.99 106.724C473.106 107.674 470.841 107.731 469.729 107.253C467.691 106.378 468.152 104.208 467.784 102.458C467.44 100.822 466.643 98.4883 465.413 97.2782C465.075 96.9456 464.596 96.9022 464.202 96.6634C459.782 92.7338 451.831 95.6689 448.431 99.668C443.732 105.194 442.677 112.745 444.189 119.665C444.46 120.905 444.878 122.083 445.255 123.291C445.443 123.893 445.488 124.613 445.824 125.148C446.674 125.653 446.759 126.904 447.292 127.709C448.41 129.398 449.618 130.912 451.278 132.107C459.084 137.724 470.772 136.014 475.022 126.876C476.392 126.324 476.055 128.14 475.72 128.795C474.759 130.67 473.446 132.435 471.986 133.952C468.03 138.06 462.01 140.548 456.253 140.086C454.725 139.963 453.115 139.532 451.65 139.096C440.686 135.834 435.9 124.364 436.813 113.66Z" fill="#A67830"/>
<path fill-rule="evenodd" clip-rule="evenodd" d="M454.459 87.5925C455.298 86.4983 455.81 85.2223 456.624 84.1132C457.539 82.8693 458.639 81.8339 459.49 80.5217C460.712 78.6357 462.193 76.9338 463.761 75.3269C464.488 74.5838 465.334 73.6749 466.309 73.2632C468.832 72.1981 471.877 74.7655 470.664 77.4155C470.011 78.8418 468.777 79.6936 467.504 80.5074C465.14 82.0187 462.536 83.0499 460.088 84.4043C458.685 85.1795 457.163 86.0153 455.877 86.9675C455.551 87.2093 454.773 87.9667 454.333 87.8236C454.375 87.7463 454.418 87.6691 454.459 87.5925Z" fill="#AC843C"/>
</g>
<path fill-rule="evenodd" clip-rule="evenodd" d="M19.0942 69.6867C19.9718 69.885 20.6791 70.4901 21.4232 70.9634C22.7322 71.7953 24.062 72.5964 25.3733 73.4248C28.3106 75.2798 31.3712 76.939 34.3043 78.7982C35.2582 79.4033 36.5367 79.8332 37.3488 80.6111C36.8209 85.2874 36.1739 89.9394 36.3627 94.6679C36.5457 99.2539 37.5341 103.831 38.8019 108.23C39.6331 111.112 40.833 113.949 42.055 116.685C42.4428 117.554 43.3056 118.533 43.5421 119.419C43.1489 119.806 42.0836 119.636 41.567 119.68C39.9375 119.82 38.1591 120.863 36.5272 120.675C35.2129 115.947 33.3659 111.283 31.7084 106.665C27.3091 94.412 22.8579 82.1515 19.0942 69.6867Z" fill="#B1863C"/>
<path fill-rule="evenodd" clip-rule="evenodd" d="M37.3638 125.47C37.9375 123.407 41.9961 123.355 43.8401 122.915C50.5088 121.321 57.5237 120.687 64.3277 119.878C77.9052 118.266 91.6866 118.074 105.333 118.62C113.93 118.964 122.469 119.355 131.014 120.413C136.696 121.115 142.319 121.85 147.927 123.029C149.956 123.454 152.917 123.576 154.653 124.742C154.979 125.494 154.686 126.687 154.654 127.493C154.573 129.549 154.514 131.61 154.591 133.665C154.132 133.731 153.484 133.446 153.024 133.352C151.831 133.109 150.638 132.867 149.447 132.619C145.605 131.821 141.69 130.976 137.795 130.49C124.079 128.782 110.216 127.769 96.391 127.641C82.7931 127.516 69.1232 128.468 55.666 130.405C51.5532 130.997 47.4262 131.584 43.37 132.497C42.0074 132.804 40.6371 133.157 39.2989 133.556C38.727 133.727 37.8857 134.202 37.2923 134.152C37.5777 131.289 36.9044 128.322 37.3638 125.47Z" fill="#A0752F"/>
<path fill-rule="evenodd" clip-rule="evenodd" d="M40.6484 98.0212C41.5922 97.9642 42.9977 99.5491 43.8276 100.037C45.7175 101.148 48.0137 101.763 50.2217 101.54C55.7929 100.976 56.1427 93.0225 55.65 88.9251C55.5272 87.905 55.2692 86.6781 54.8456 85.7399C54.4852 84.9412 53.6582 84.5463 53.1178 83.8931C52.1389 82.7091 51.7963 80.4698 53.0225 79.332C54.2361 78.205 56.4167 79.224 56.9667 80.6278C57.5088 82.0113 57.1514 83.4757 56.6128 84.756C60.0493 89.0546 63.6414 94.8532 70.0962 93.8378C70.9631 93.7018 71.7853 93.3888 72.5568 92.9767C73.7824 92.3229 74.9227 91.5041 75.9356 90.5552C77.0712 89.4916 78.2455 88.152 78.961 86.7648C79.2333 86.6247 79.813 88.5279 79.9542 88.9061C80.895 91.4257 81.7517 93.9619 82.7556 96.4601C84.4292 100.626 85.9128 104.854 87.5363 109.038C88.0487 110.358 88.5456 111.684 89.0735 112.999C89.2528 113.445 89.6353 114.031 89.6675 114.503C84.6962 114.657 79.7624 115.103 74.8071 115.473C73.4428 115.576 72.0814 115.68 70.717 115.788C70.2928 115.822 69.5743 116.162 69.1954 116.004C69.0244 114.928 68.3791 113.959 68.0216 112.936C67.5617 111.621 67.3031 110.25 66.7693 108.958C66.6662 108.709 65.9489 106.89 65.6003 106.915C65.427 106.927 65.4621 107.232 65.393 107.391C65.1791 109.55 64.7263 111.68 64.4713 113.83C64.3807 114.59 64.5541 115.849 64.0024 116.448C63.0104 116.907 61.512 116.841 60.4175 116.921C58.2137 117.083 55.9937 117.311 53.8101 117.67C52.0698 117.957 49.8737 118.903 48.1423 118.796C47.6609 118.722 47.3398 118.209 47.0765 117.833C46.3019 116.729 45.6644 115.522 45.0317 114.333C42.4215 109.427 40.7837 103.586 40.6484 98.0212Z" fill="#A97D35"/>
<path fill-rule="evenodd" clip-rule="evenodd" d="M41.1357 136.411C44.9834 135.442 48.8775 134.721 52.7704 133.944C54.7485 133.549 56.8147 132.841 58.8386 132.787C60.4752 132.742 62.2007 133.422 63.8123 133.699C67.4014 134.315 71.0673 134.87 74.6927 135.215C87.0429 136.388 99.3431 136.823 111.726 135.993C116.386 135.681 121.108 135.18 125.709 134.382C128.149 133.959 130.86 133.021 133.336 133.056C134.287 133.07 135.144 133.446 136.066 133.608C137.795 133.911 139.534 134.118 141.263 134.431C143.778 134.886 146.283 135.357 148.782 135.893C149.064 135.954 150.978 136.313 150.859 136.527C150.697 136.818 150.013 136.84 149.738 136.945C148.533 137.403 147.334 137.893 146.122 138.35C141.08 140.25 135.668 141.58 130.352 142.445C108.912 145.933 86.5502 146.374 65.0837 142.787C58.9244 141.758 52.7567 140.605 46.7982 138.733C45.3045 138.264 43.7823 137.792 42.3702 137.111C41.9996 136.933 41.2329 136.786 41.1357 136.411Z" fill="#956B2C"/>
<path fill-rule="evenodd" clip-rule="evenodd" d="M78.4722 75.3214C78.7885 74.1373 79.4922 72.9675 80.0218 71.8606C81.2867 69.2181 82.669 66.6261 84.0006 64.0175C87.5086 57.1459 90.8671 50.1442 93.9033 43.0618C93.9337 43.0089 94.1261 45.0047 94.1338 45.5516C94.1589 47.3289 94.1249 49.1121 94.1011 50.89C94.0302 56.2326 94.1088 61.5841 94.1428 66.9272C94.2113 77.6913 94.079 88.4518 94.06 99.2147C94.054 102.647 93.9545 106.07 93.9569 109.503C93.9581 110.827 94.3948 112.737 94.057 113.986C93.7513 114.058 93.4451 114.051 93.1359 114.093C92.4501 112.791 92.1588 111.14 91.6738 109.745C90.5364 106.477 89.3752 103.213 88.2122 99.954C85.2499 91.6495 81.7121 83.5006 78.4722 75.3214Z" fill="#B88F42"/>
<path fill-rule="evenodd" clip-rule="evenodd" d="M97.7271 43C99.3846 45.6175 100.509 48.6745 101.826 51.4797C104.06 56.2373 106.336 60.9778 108.583 65.7301C109.7 68.0935 110.879 70.4319 112.044 72.7721C112.469 73.6272 113.354 74.6088 113.565 75.5162C112.777 78.186 111.183 80.7774 110.145 83.3783C108.605 87.2381 107.209 91.1489 105.616 94.9909C103.549 99.9784 101.3 104.975 99.5717 110.092C99.1273 111.159 98.9164 112.295 98.5416 113.382C98.3944 113.81 98.404 114.37 97.8666 114.409C97.5776 114.01 97.7087 113.348 97.7242 112.873C97.7623 111.709 97.7742 110.546 97.77 109.381C97.7533 104.83 97.7242 100.28 97.7134 95.729C97.6932 87.4144 97.9678 79.0998 97.9089 70.7918C97.8427 61.5306 97.6086 52.2594 97.7271 43Z" fill="#B88E42"/>
<path fill-rule="evenodd" clip-rule="evenodd" d="M101.954 114.523C104.09 109.391 105.999 104.155 108.026 98.9707C109.662 94.7885 111.49 90.5462 112.66 86.2066C114.178 87.7072 115.075 89.6929 116.682 91.1312C120.747 94.7718 126.175 94.447 130.085 90.7476C131.864 89.0653 133.124 86.4822 135.247 85.1989C135.396 84.3623 134.738 83.0707 134.766 82.1182C134.821 80.3023 136.345 78.9401 138.1 79.0666C138.542 79.0987 138.971 79.085 139.303 79.3932C141.071 81.6283 139.052 83.9395 137.167 85.1283C136.495 86.101 136.542 87.6443 136.3 88.7838C135.254 93.6982 136.536 100.58 142.28 101.585C144.367 101.949 147.204 101.465 148.95 100.213C149.819 99.5895 150.381 98.5687 151.245 97.9778C151.521 99.8377 151.08 102.144 150.708 103.979C149.978 107.576 148.56 111.05 146.938 114.329C146.22 115.779 145.457 117.397 144.458 118.678C142.919 118.822 141.113 118.029 139.583 117.816C135.659 117.27 131.615 116.536 127.644 116.485C127.383 115.805 127.455 114.933 127.364 114.209C127.157 112.573 126.957 110.941 126.549 109.341C126.467 109.02 126.236 107.105 125.84 107.211C125.305 108.719 124.689 110.19 124.323 111.753C124.024 113.03 123.857 114.777 123.169 115.905C116.211 115.037 108.967 114.466 101.954 114.523Z" fill="#AC8036"/>
<path fill-rule="evenodd" clip-rule="evenodd" d="M148.694 118.894C150.436 115.293 152.323 111.722 153.425 107.85C154.967 102.432 155.828 96.4529 155.618 90.8146C155.502 87.7114 154.917 84.7363 154.483 81.6913C156.947 79.5589 160.174 78.0001 162.92 76.24C166.397 74.0114 169.74 71.4016 173.338 69.3856C173.615 70.0091 172.502 71.9462 172.268 72.5863C171.174 75.5851 170.191 78.6777 169.234 81.7233C166.213 91.3491 162.604 100.797 159.103 110.256C158.111 112.933 157.226 115.65 156.226 118.326C155.902 119.194 155.744 120.123 155.332 120.958C154.339 120.842 153.259 120.347 152.283 120.087C151.063 119.763 149.81 119.603 148.592 119.277C148.626 119.149 148.66 119.021 148.694 118.894Z" fill="#B4883F"/>
<defs>
<clipPath id="clip0_601_9">
<rect width="336" height="115" fill="white" transform="translate(164 48)"/>
</clipPath>
</defs>
</svg>
